<svg width="200" height="200" viewBox="0 0 200 200" stroke="#10dade" fill="none" stroke-width="2.5" stroke-linecap="round" stroke-linejoin="round"  xmlns="http://www.w3.org/2000/svg">
    <path fill="#ffa600" stroke="none" transform="translate(-10,-10)" d="M58.497 82.309c-44.5-16-40.5 62 3.5 46.5 19.868-10.664 28.199-20.615 44.18-36.775 20.028-20.553 46.205-38.081 63.561-2.978 11.824 23.913-8.098 37.16-29.954 27.551L58.497 82.309Z"/><path d="M58.497 82.309c-44.5-16-40.5 62 3.5 46.5 19.868-10.664 28.199-20.615 44.18-36.775 20.028-20.553 46.205-38.081 63.561-2.978 11.824 23.913-8.098 37.16-29.954 27.551L58.497 82.309Z"/>
</svg>